<svg width="48" height="48" viewBox="0 0 48 48" fill="none" xmlns="http://www.w3.org/2000/svg">
<path d="M47.9992 13.1209C47.9952 12.8869 47.8708 12.6638 47.6728 12.5384L32.8041 3.12333C32.7313 3.0772 32.6506 3.04486 32.566 3.02789L17.5151 0.0147775C16.7694 -0.134847 16.3587 0.891524 17.001 1.29821L23.7367 5.56326L18.3141 7.17256L13.7205 4.26389C13.4877 4.11642 13.19 4.11867 12.9593 4.2696L7.39 7.91515C6.65379 8.39703 7.39047 9.59562 8.16016 9.0918L13.3508 5.69422L26.9144 14.2828L15.5655 21.7113L2.00193 13.1227L5.05639 11.1234C5.7926 10.6415 5.05592 9.4429 4.28623 9.94671L0.318092 12.5441C0.122906 12.6717 0 12.8994 0 13.1324V37.8827C0 38.1236 0.123375 38.3478 0.326999 38.4767L15.1958 47.8918C15.3642 47.9983 15.5813 48.0287 15.772 47.9718L41.5459 40.3229C42.3895 40.0726 42.0277 38.7128 41.1458 38.9748L16.2749 46.3557V23.0722L46.5935 14.0745V37.3579L44.6736 37.9277C43.8301 38.178 44.1916 39.5374 45.0737 39.2758L47.4967 38.5568C47.7952 38.4683 47.9998 38.1939 47.9998 37.8827V13.1324C47.9998 13.1286 47.9992 13.1247 47.9992 13.1209ZM32.162 4.38126L43.7186 11.6991L32.5118 9.45537L20.9552 2.13755L32.162 4.38126ZM28.5893 13.679L19.8913 8.17137L25.3139 6.56206L31.8697 10.7133C31.9426 10.7594 32.0233 10.7918 32.1078 10.8087L44.378 13.2653L19.9705 20.5086L28.5982 14.8613C28.7983 14.7304 28.9181 14.5068 28.9163 14.2677C28.9145 14.0287 28.7914 13.8068 28.5893 13.679ZM1.40624 14.4098L14.8688 22.9344V46.0203L1.40624 37.4958V14.4098Z" fill="#0077B9"/>
<path d="M43.7486 27.5189C43.5707 27.3861 43.3405 27.3453 43.1277 27.4086L19.34 34.4873C19.0419 34.576 18.8374 34.8501 18.8374 35.1612V42.0222C18.8374 42.2442 18.9422 42.4532 19.1202 42.5859C19.2431 42.6776 19.3908 42.7254 19.5405 42.7254C19.6076 42.7254 19.6751 42.7157 19.7411 42.6961L43.5288 35.6175C43.8269 35.5288 44.0314 35.2546 44.0314 34.9436V28.0825C44.0314 27.8605 43.9266 27.6516 43.7486 27.5189ZM42.6252 34.4192L20.2436 41.0794V35.6855L42.6252 29.0254V34.4192Z" fill="#0077B9"/>
<path d="M27.3447 38C27.733 38 28.0479 37.6852 28.0479 37.2969V35.3044C28.0479 34.4246 26.6416 34.3844 26.6416 35.3044V37.2969C26.6416 37.6853 26.9564 38 27.3447 38Z" fill="#0077B9"/>
<path d="M36.6758 35.1402C37.0641 35.1402 37.3789 34.8254 37.3789 34.4371V32.4445C37.3789 31.5647 35.9727 31.5246 35.9727 32.4445V34.4371C35.9727 34.8254 36.2875 35.1402 36.6758 35.1402Z" fill="#0077B9"/>
<path d="M38.751 34.5777C39.1393 34.5777 39.4541 34.2629 39.4541 33.8746V31.882C39.4541 31.0022 38.0479 30.9621 38.0479 31.882V33.8746C38.0479 34.2629 38.3627 34.5777 38.751 34.5777Z" fill="#0077B9"/>
<path d="M40.8262 34.0152C41.2145 34.0152 41.5293 33.7004 41.5293 33.3121V31.3195C41.5293 30.4397 40.123 30.3996 40.123 31.3195V33.3121C40.123 33.7004 40.4379 34.0152 40.8262 34.0152Z" fill="#0077B9"/>
<path d="M22.0625 39.5718C22.4508 39.5718 22.7656 39.257 22.7656 38.8687V36.8762C22.7656 35.9963 21.3594 35.9562 21.3594 36.8762V38.8687C21.3594 39.257 21.6742 39.5718 22.0625 39.5718Z" fill="#0077B9"/>
<path d="M24.0947 39.0718C24.483 39.0718 24.7979 38.757 24.7979 38.3687V36.3762C24.7979 35.4963 23.3916 35.4562 23.3916 36.3762V38.3687C23.3916 38.757 23.7064 39.0718 24.0947 39.0718Z" fill="#0077B9"/>
<path d="M31.0166 36.8647C31.4049 36.8647 31.7197 36.5499 31.7197 36.1616V34.1692C31.7197 33.2893 30.3135 33.2492 30.3135 34.1692V36.1616C30.3135 36.5499 30.6283 36.8647 31.0166 36.8647Z" fill="#0077B9"/>
<path d="M33.0039 36.3555C33.3922 36.3555 33.707 36.0407 33.707 35.6523V33.6599C33.707 32.78 32.3008 32.7399 32.3008 33.6599V35.6523C32.3008 36.0407 32.6156 36.3555 33.0039 36.3555Z" fill="#0077B9"/>
</svg>
