<svg width="60" height="58" viewBox="0 0 60 58" fill="none" xmlns="http://www.w3.org/2000/svg">
<path d="M55.4097 5.40157C52.2984 1.91821 48.0165 0 43.3523 0C39.7058 0 35.7729 2.16955 32.8993 3.75471C31.8531 4.33218 30.4226 5.12167 29.9997 5.17364C29.5788 5.12255 28.1556 4.33512 27.1119 3.7578C24.2457 2.1719 20.3201 0 16.6479 0C11.9835 0 7.70142 1.91821 4.58999 5.40157C1.63007 8.71545 0 13.0775 0 17.6841C0 24.2649 2.36317 33.6234 6.32136 42.7188C8.08233 46.7655 9.95681 50.2623 11.7421 52.8311C13.867 55.8887 15.6905 57.3747 17.3171 57.3747C18.0388 57.3747 19.3604 57.0686 20.1019 55.0179C20.8225 53.0252 21.4707 50.7379 22.158 48.3117C23.9769 41.8912 26.2406 33.9003 29.885 33.9003H30.1151C31.7355 33.9003 33.1859 35.2882 34.5492 38.1434C35.8997 40.9717 36.9264 44.7326 37.9207 48.3742C38.5778 50.7817 39.1987 53.0552 39.896 55.0125C40.6225 57.0505 41.9292 57.3553 42.6443 57.3558C44.2628 57.3556 46.0846 55.8467 48.2141 52.7429C49.9948 50.1477 51.8732 46.6162 53.6464 42.5304C57.6248 33.3617 60 24.0735 60 17.684C60 13.0774 58.3698 8.7153 55.4097 5.40157ZM42.2274 10.1255C42.19 10.123 38.4222 9.94267 34.9922 9.03436C33.4457 8.6249 31.617 7.80213 31.617 7.55801C31.617 7.32037 33.6038 6.16352 34.0829 5.89908C36.722 4.4432 40.3359 2.4493 43.3523 2.4493C52.2397 2.4493 57.5507 10.1953 57.5507 17.6841C57.5507 23.6649 55.1937 32.8119 51.3993 41.5552C49.7123 45.4429 47.8638 48.924 46.1944 51.3571C44.2682 54.1645 43.0219 54.9807 42.6443 54.9063C42.4126 54.8605 42.3837 54.6962 42.2035 54.19C41.5364 52.3183 40.9273 50.0875 40.2825 47.7257C39.261 43.9843 38.2051 40.1154 36.7594 37.0877C34.9482 33.2946 32.7748 31.4507 30.1151 31.4507H29.885C27.3229 31.4507 25.1998 33.2799 23.3946 37.0425C21.9537 40.0457 20.8595 43.9084 19.8014 47.6439C19.1271 50.024 18.4903 52.2725 17.7987 54.1848C17.646 54.607 17.5989 54.8826 17.3171 54.9253C17.0962 54.9589 16.1529 54.8857 13.7533 51.4331C12.0828 49.0294 10.241 45.5875 8.56718 41.7413C4.79347 33.0699 2.4493 23.8518 2.4493 17.684C2.4493 10.1952 7.76032 2.44915 16.6479 2.44915C18.958 2.44915 21.9939 3.50176 24.7688 5.26493C25.1758 5.52363 25.7488 5.96401 26.303 6.39012C26.5242 6.56018 26.7421 6.72759 26.945 6.88028C27.5955 7.36749 28.4745 8.00458 29.5066 8.61223C29.9467 8.87196 30.4943 9.1953 31.0759 9.44207C33.2999 10.3862 35.6581 10.8648 38.0847 10.8648C40.5572 10.8648 42.2203 10.425 42.2366 10.4199C42.2366 10.4199 42.6087 10.3215 42.5969 10.2248C42.5852 10.128 42.2274 10.1255 42.2274 10.1255Z" fill="#0077B9"/>
</svg>
