<svg width="48" height="60" viewBox="0 0 48 60" fill="none" xmlns="http://www.w3.org/2000/svg">
<path d="M23.4161 13.0035H24.9231C26.0295 13.0035 26.9333 12.1198 26.9658 11.0212C28.0644 10.9887 28.9482 10.0849 28.9482 8.97851V7.47136C28.9482 6.36499 28.0644 5.46109 26.9658 5.42853C26.9333 4.32995 26.0294 3.44629 24.9231 3.44629H23.4161C22.3097 3.44629 21.4059 4.32995 21.3734 5.42853C20.2748 5.46109 19.3911 6.36499 19.3911 7.47125V8.97839C19.3911 10.0848 20.2748 10.9885 21.3734 11.0211C21.4058 12.1198 22.3097 13.0035 23.4161 13.0035ZM21.1355 8.97839V7.47136C21.1355 7.30645 21.2697 7.17223 21.4348 7.17223H22.1827C22.6979 7.17223 23.1169 6.75308 23.1169 6.23799V5.49005C23.1169 5.32514 23.2512 5.19093 23.4161 5.19093H24.9231C25.088 5.19093 25.2222 5.32514 25.2222 5.49005V6.23799C25.2222 6.7532 25.6413 7.17223 26.1565 7.17223H26.9044C27.0694 7.17223 27.2037 7.30645 27.2037 7.47148V8.97851C27.2037 9.14343 27.0694 9.27764 26.9045 9.27764H26.1565C25.6413 9.27764 25.2222 9.69679 25.2222 10.2119V10.9598C25.2222 11.1247 25.088 11.2591 24.9231 11.2591H23.4161C23.2512 11.2591 23.1169 11.1249 23.1169 10.9599V10.212C23.1169 9.69679 22.6978 9.27775 22.1827 9.27775H21.4348C21.2697 9.27764 21.1355 9.14343 21.1355 8.97839Z" fill="#0077B9"/>
<path d="M41.5762 39.0394L30.706 34.9631C30.4211 34.8562 30.2295 34.58 30.2295 34.2755V30.4218C32.899 28.6425 34.7693 25.7552 35.1777 22.4219C37.2497 22.2577 38.886 20.5203 38.886 18.4068C38.886 16.3218 37.2941 14.602 35.2621 14.3982V6.17525C35.2621 4.61088 34.4325 3.13293 33.0971 2.31812L30.9759 1.02368C29.8784 0.354021 28.6187 0 27.3331 0H20.667C19.3814 0 18.1217 0.354021 17.0242 1.02368L14.9029 2.31812C13.5675 3.13293 12.738 4.61088 12.738 6.17525V14.3883C10.6441 14.5301 8.9837 16.2776 8.9837 18.4069C8.9837 20.565 10.6894 22.3319 12.8235 22.431C13.2342 25.7604 15.1036 28.6441 17.7706 30.4218V34.2755C17.7706 34.5799 17.5792 34.8562 17.2941 34.9631L6.4239 39.0394C2.58154 40.4804 0 44.2056 0 48.309V53.6722C0 54.154 0.39054 54.5445 0.87226 54.5445C1.35398 54.5445 1.74452 54.154 1.74452 53.6722V48.309C1.74452 44.9286 3.87121 41.8599 7.03635 40.6729L10.4047 39.4098V44.9915C8.91775 45.3792 7.81708 46.7332 7.81708 48.3398C7.81708 50.2476 9.36912 51.7998 11.2769 51.7998C13.1847 51.7998 14.7368 50.2476 14.7368 48.3398C14.7368 46.7332 13.636 45.3792 12.1492 44.9915V38.7556L12.6479 38.5685C12.6713 38.5902 12.6958 38.6111 12.7221 38.6305L14.881 40.2321C17.5382 42.2034 20.6915 43.2454 24.0002 43.2454C27.3086 43.2454 30.4621 42.2034 33.1192 40.2321L35.2821 38.6276C35.3071 38.6091 35.3306 38.5894 35.353 38.5689L36.5601 39.0215V44.2625C34.3832 44.4088 32.6566 46.2254 32.6566 48.4388V55.347C32.6566 55.8287 33.047 56.2192 33.5289 56.2192H34.8573C35.3391 56.2192 35.7295 55.8287 35.7295 55.347C35.7295 54.8653 35.3391 54.4747 34.8573 54.4747H34.4011V48.4388C34.4011 47.092 35.4968 45.9964 36.8434 45.9964H37.9221C39.2688 45.9964 40.3645 47.092 40.3645 48.4388V54.4747H39.9129C39.4312 54.4747 39.0406 54.8653 39.0406 55.347C39.0406 55.8287 39.4312 56.2192 39.9129 56.2192H41.2367C41.7186 56.2192 42.109 55.8287 42.109 55.347V48.4388C42.109 46.2592 40.4346 44.4641 38.3047 44.2701V39.6758L40.9637 40.673C44.1289 41.86 46.2556 44.9287 46.2556 48.3092V57.5459C46.2556 57.5665 46.2387 57.5833 46.2183 57.5833H1.78197C1.76138 57.5833 1.74452 57.5665 1.74452 57.5459V57.1613C1.74452 56.6796 1.35398 56.289 0.87226 56.289C0.39054 56.289 0 56.6796 0 57.1613V57.5459C0 58.5284 0.799456 59.3279 1.78197 59.3279H46.2182C47.2007 59.3279 48 58.5284 48 57.5459V48.3091C48 44.2056 45.4185 40.4804 41.5762 39.0394ZM12.9923 48.3398C12.9923 49.2857 12.2228 50.0553 11.2769 50.0553C10.331 50.0553 9.5616 49.2857 9.5616 48.3398C9.5616 47.394 10.331 46.6245 11.2769 46.6245C12.2228 46.6245 12.9923 47.394 12.9923 48.3398ZM37.1415 18.407C37.1415 19.5283 36.3289 20.4614 35.2621 20.6534V16.1607C36.3289 16.3525 37.1415 17.2858 37.1415 18.407ZM10.7281 18.407C10.7281 17.2404 11.6076 16.2771 12.7379 16.1408V20.6734C11.6076 20.537 10.7281 19.5735 10.7281 18.407ZM14.4825 21.0444V16.1326H19.2617C19.7434 16.1326 20.134 15.7421 20.134 15.2604C20.134 14.7786 19.7434 14.3881 19.2617 14.3881H14.4825V6.17525C14.4825 5.21484 14.9918 4.30745 15.8116 3.80724L17.933 2.51292C18.7566 2.01027 19.702 1.74452 20.667 1.74452H27.3331C28.2981 1.74452 29.2435 2.01027 30.0673 2.51292L32.1885 3.80724C33.0083 4.30745 33.5176 5.21484 33.5176 6.17525V14.3881H22.7508C22.269 14.3881 21.8785 14.7786 21.8785 15.2604C21.8785 15.7421 22.269 16.1326 22.7508 16.1326H33.5176V21.0444C33.5176 26.2924 29.248 30.5619 24.0001 30.5619C18.7521 30.5619 14.4825 26.2924 14.4825 21.0444ZM32.0797 38.8312C29.7255 40.5778 26.9314 41.501 24.0001 41.501C21.0686 41.501 18.2747 40.5778 15.9204 38.8312L14.5865 37.8417L17.9065 36.5967C18.8685 36.2359 19.515 35.3032 19.515 34.2756V31.3738C20.8902 31.9732 22.4067 32.3065 24.0001 32.3065C25.5933 32.3065 27.11 31.9732 28.485 31.3738V34.2756C28.485 35.3032 29.1315 36.2359 30.0934 36.5967L33.4135 37.8417L32.0797 38.8312Z" fill="#0077B9"/>
</svg>
