<svg width="48" height="59" viewBox="0 0 48 59" fill="none" xmlns="http://www.w3.org/2000/svg">
<path d="M42.8571 52.5143C42.3845 52.5143 42 52.8987 42 53.3714C42 53.8441 42.3845 54.2286 42.8571 54.2286C43.3298 54.2286 43.7143 53.8441 43.7143 53.3714C43.7143 52.8987 43.3298 52.5143 42.8571 52.5143ZM45.4286 48.9205V43.9726C45.4286 42.2529 44.931 40.5851 43.9894 39.1495C43.7298 38.7537 43.1986 38.6433 42.8025 38.9029C42.4066 39.1624 42.2962 39.6938 42.5559 40.0896C43.3137 41.2451 43.7143 42.5879 43.7143 43.9726V48.3014C43.4353 48.2544 43.1493 48.2286 42.8571 48.2286C42.565 48.2286 42.279 48.2544 42 48.3014V43.9726C42 41.0026 39.5842 38.5863 36.6149 38.5863C33.6449 38.5863 31.2286 41.0026 31.2286 43.9726V48.9189C31.2286 52.8335 28.0433 56.0183 24.128 56.0183C20.2134 56.0183 17.0286 52.8335 17.0286 48.9189V46.3689C17.2945 46.4642 17.5943 46.5166 17.8879 46.5166C18.184 46.5166 18.4714 46.4642 18.7429 46.3683V48.9189C18.7429 51.8882 21.1586 54.304 24.128 54.304C27.0979 54.304 29.5143 51.8882 29.5143 48.9189V43.9726C29.5143 40.0574 32.6995 36.872 36.6149 36.872C37.7767 36.872 38.9297 37.1601 39.9493 37.7053C40.3669 37.9283 40.8861 37.771 41.1093 37.3535C41.3325 36.936 41.1749 36.4167 40.7575 36.1935C39.4902 35.516 38.0577 35.1578 36.6149 35.1578C31.7544 35.1578 27.8 39.1121 27.8 43.9727V48.919C27.8 50.9431 26.1528 52.5898 24.128 52.5898C22.1039 52.5898 20.4571 50.9431 20.4571 48.919V37.2121C29.2198 35.9479 35.7714 28.4174 35.7714 19.511C35.7714 18.4334 35.0662 17.4378 34.0571 17.0847V8.85714C34.0571 5.90469 32.0976 3.36663 29.3118 2.58663C29.0248 1.11463 27.7262 0 26.1714 0H24.4571C22.6927 0 21.2571 1.43554 21.2571 3.2C21.2571 4.96446 22.6927 6.4 24.4571 6.4H26.1714C27.5359 6.4 28.703 5.54126 29.1623 4.33623C31.0456 5.00617 32.3429 6.79451 32.3429 8.85714V17.0888C31.344 17.4486 30.6322 18.4209 30.6285 19.5551C30.6047 26.5571 24.8882 32.2538 17.8857 32.2538C14.9442 32.2538 12.0725 31.2232 9.79931 29.352C9.43394 29.0512 8.89371 29.1034 8.5928 29.4689C8.29189 29.8344 8.34423 30.3746 8.70971 30.6754C11.2888 32.7987 14.5475 33.9681 17.8856 33.9681C25.8303 33.9681 32.3157 27.505 32.3426 19.5609C32.3442 19.0863 32.7062 18.68 33.1494 18.6552C33.6344 18.6281 34.057 19.0241 34.057 19.511C34.057 27.7013 27.9296 34.6047 19.804 35.569C19.199 35.6408 18.7427 36.153 18.7427 36.7605V43.945C18.7454 44.4262 18.3235 44.8238 17.843 44.8011C17.3938 44.78 17.0285 44.3742 17.0285 43.8966V36.7605C17.0285 36.153 16.5722 35.6408 15.9672 35.569C7.84171 34.6047 1.71429 27.7013 1.71429 19.511C1.71429 19.0247 2.13646 18.6281 2.62183 18.6552C3.06514 18.6799 3.42709 19.0862 3.42869 19.5609C3.4384 22.4312 4.2912 25.204 5.89474 27.5798C6.15954 27.9721 6.69211 28.0754 7.0848 27.8107C7.47714 27.5459 7.58057 27.0131 7.31577 26.6207C5.90297 24.5277 5.15154 22.0845 5.14297 19.5552C5.1392 18.421 4.42754 17.4487 3.42857 17.0889V8.85714C3.42857 6.79451 4.72583 5.00617 6.60914 4.33623C7.06846 5.54126 8.23554 6.4 9.6 6.4H11.3143C13.0787 6.4 14.5143 4.96446 14.5143 3.2C14.5143 1.43554 13.0787 0 11.3143 0H9.6C8.04526 0 6.74663 1.11463 6.45966 2.58663C3.67383 3.36663 1.71429 5.90469 1.71429 8.85714V17.0849C0.704 17.4389 0 18.4362 0 19.511C0 28.4174 6.55166 35.9479 15.3143 37.2121V48.9189C15.3143 53.7787 19.2681 57.7326 24.128 57.7326C28.9885 57.7326 32.9429 53.7787 32.9429 48.9189V43.9726C32.9429 41.9479 34.5901 40.3006 36.6149 40.3006C38.639 40.3006 40.2857 41.9479 40.2857 43.9726V48.9205C38.7501 49.8111 37.7143 51.472 37.7143 53.3714C37.7143 56.2072 40.0214 58.5143 42.8571 58.5143C45.6929 58.5143 48 56.2072 48 53.3714C48 51.472 46.9642 49.8111 45.4286 48.9205ZM26.1714 4.68571H24.4571C23.6379 4.68571 22.9714 4.0192 22.9714 3.2C22.9714 2.3808 23.6379 1.71429 24.4571 1.71429H26.1714C26.9906 1.71429 27.6571 2.3808 27.6571 3.2C27.6571 4.0192 26.9906 4.68571 26.1714 4.68571ZM9.6 1.71429H11.3143C12.1335 1.71429 12.8 2.3808 12.8 3.2C12.8 4.0192 12.1335 4.68571 11.3143 4.68571H9.6C8.7808 4.68571 8.11429 4.0192 8.11429 3.2C8.11429 2.3808 8.7808 1.71429 9.6 1.71429ZM42.8571 56.8C40.9666 56.8 39.4286 55.2619 39.4286 53.3714C39.4286 51.4809 40.9666 49.9429 42.8571 49.9429C44.7477 49.9429 46.2857 51.4809 46.2857 53.3714C46.2857 55.2619 44.7477 56.8 42.8571 56.8Z" fill="#0077B9"/>
</svg>
