<svg width="60" height="44" viewBox="0 0 60 44" fill="none" xmlns="http://www.w3.org/2000/svg">
<path d="M58.9734 20.8693H53.8973C56.0076 16.1186 55.7795 12.2727 54.981 9.67113C53.6122 5.03351 48.9924 0 42.1483 0C40.3232 0 38.4981 0.339338 36.616 1.01801C33.365 2.2057 31.1977 3.50649 30.2281 4.18517C29.2586 3.50649 27.1483 2.2057 23.8403 1.01801C21.9582 0.339338 20.076 0 18.308 0C11.4639 0 6.84411 5.03351 5.47529 9.67113C4.67681 12.4424 4.39163 16.6276 7.07224 21.8873H0.912548C0.39924 21.8873 0 22.2832 0 22.7922C0 23.3012 0.39924 23.6971 0.912548 23.6971H8.15589C8.44106 24.2061 8.78327 24.7151 9.18251 25.2241C15.1141 33.7076 28.0038 42.9263 30.3422 43.4918V43.5484C30.3422 43.5484 30.3992 43.5484 30.4563 43.4918C30.5133 43.4918 30.5703 43.4918 30.6274 43.4918V43.4353C32.6236 42.4738 45 34.5559 51.5019 25.1676C52.1293 24.3192 52.6426 23.4709 53.0989 22.6225H59.0875C59.6008 22.6225 60 22.2266 60 21.7176C60 21.2086 59.4867 20.8693 58.9734 20.8693ZM49.8479 24.2061C43.8023 32.9724 32.6806 40.0419 30.2852 41.5689C27.8327 40.0419 16.7681 32.9158 10.6654 24.2061C10.5513 24.0364 10.4373 23.8668 10.3232 23.6971H18.7072C19.0494 23.6971 19.3916 23.5274 19.5627 23.1881L23.384 15.7227L29.3726 30.9363C29.4867 31.2757 29.8859 31.5019 30.2281 31.5019C30.2281 31.5019 30.2281 31.5019 30.2852 31.5019C30.6844 31.5019 31.0266 31.2191 31.1407 30.8232L36.3878 13.008L39.1825 22.0004C39.2966 22.3398 39.5818 22.566 39.924 22.6225C40.2662 22.6791 40.6084 22.5094 40.8365 22.2266L43.0608 19.0029L44.943 22.1701C45.1141 22.4529 45.3992 22.6225 45.7414 22.6225H50.8745C50.5323 23.1881 50.1901 23.6971 49.8479 24.2061ZM51.9011 20.8693H46.3118L43.9734 16.9103C43.8023 16.6276 43.5171 16.4579 43.1749 16.4579C42.8327 16.4579 42.5475 16.571 42.3764 16.8538L40.4373 19.6816L37.3004 9.55802C37.1863 9.16213 36.7871 8.9359 36.3878 8.87934C35.9886 8.87934 35.5894 9.16213 35.4753 9.55802L30.1711 27.7126L24.4106 13.1211C24.2966 12.7817 23.9544 12.5555 23.6122 12.5555C23.2129 12.5555 22.9278 12.7252 22.7567 13.0645L18.251 21.8307H9.18251C6.90114 17.7021 6.27376 13.7432 7.30038 10.1801C8.4981 6.16464 12.4335 1.86636 18.365 1.86636C19.962 1.86636 21.616 2.2057 23.27 2.77126C27.4335 4.29828 29.6578 6.05153 29.7148 6.05153C30.057 6.33431 30.5133 6.33431 30.8555 6.05153C30.8555 6.05153 33.0798 4.29828 37.3004 2.77126C38.9544 2.14914 40.6084 1.86636 42.2053 1.86636C48.0799 1.86636 52.0722 6.16464 53.27 10.1801C54.2395 13.4604 53.7262 17.08 51.9011 20.8693Z" fill="#0077B9"/>
</svg>
