<svg width="63" height="60" viewBox="0 0 63 60" fill="none" xmlns="http://www.w3.org/2000/svg">
<path d="M60.5459 44.7007H56.8658C57.7642 43.9433 58.4441 42.8753 58.8025 41.3681C59.0388 40.3735 58.9313 39.4449 58.8177 38.4616C58.6871 37.3334 58.5521 36.1669 58.891 34.6554V34.6553C59.1515 33.4929 58.9619 32.6206 58.3274 32.0625C57.5595 31.387 56.3051 31.3584 54.5989 31.9779C54.0583 32.1746 53.5743 32.4715 53.1628 32.8497C52.1428 32.465 51.044 32.3234 49.9462 32.4401C47.9562 32.6524 46.1147 33.8462 44.9416 35.5824C43.7468 34.7785 42.2837 34.1385 40.6481 33.7113C40.162 33.5842 39.6661 33.8753 39.5392 34.3608C39.4123 34.8465 39.7031 35.3429 40.1888 35.4698C41.7142 35.8682 43.0529 36.466 44.1048 37.2128C44.0767 37.2889 44.0495 37.3655 44.0238 37.4427C43.7241 38.3539 43.6151 39.2967 43.7086 40.1687C43.8996 41.9608 44.6493 43.5353 45.8028 44.7006H36.9102V41.8743H39.3262C39.8281 41.8743 40.2349 41.4675 40.2349 40.9655C40.2349 40.4635 39.8281 40.0568 39.3262 40.0568H28.866V36.6606C28.9752 36.6125 29.0891 36.555 29.2093 36.4847C30.9711 35.455 33.4988 34.8896 36.1445 34.9325C36.1496 34.9326 36.1546 34.9326 36.1597 34.9326C36.6546 34.9326 37.0598 34.5356 37.0681 34.0388C37.0763 33.5369 36.6761 33.1233 36.1743 33.1152C35.1266 33.0985 34.1061 33.1666 33.132 33.3109V28.4807C33.9374 27.8919 34.698 27.1298 35.2878 26.1069C36.1566 24.5992 36.1913 23.7734 36.2542 22.2745C36.2642 22.0345 36.2753 21.7719 36.2906 21.4796C36.2911 21.4715 36.2905 21.4635 36.2906 21.4554C36.2909 21.4475 36.2919 21.4397 36.2919 21.4317V19.2026C36.2919 16.5594 34.1415 14.4089 31.4984 14.4089H31.1807C32.5269 13.0327 33.4273 11.248 33.4273 9.64343V7.77851C33.4273 5.43583 32.6771 3.44526 31.2579 2.02225C29.9863 0.747311 28.2752 0.0291412 26.4397 0.000181754C26.4301 -6.05846e-05 26.4206 -6.05846e-05 26.411 0.000181754C24.5754 0.0291412 22.8638 0.747311 21.5914 2.02213C20.1708 3.44538 19.42 5.43595 19.42 7.77864V9.64355C19.42 11.2475 20.3206 13.0322 21.6681 14.409H21.3488C18.9927 14.409 17.8323 15.8493 17.1642 16.9331L11.8728 25.5263C11.2743 24.4516 9.79071 22.1403 8.03642 22.006C7.54811 21.969 6.93584 21.9839 6.52763 22.4361C6.09808 22.9122 6.20592 23.5081 6.28456 23.9432L7.56314 31.2338C7.67655 31.8803 7.76597 32.3909 8.19285 32.7377C8.63997 33.1011 9.15433 33.0462 9.75024 32.9822C9.8725 32.9692 10.0101 32.9544 10.1662 32.9401C12.6883 32.7076 14.6016 33.4411 15.3068 33.7668C16.0703 34.1198 16.7463 34.5039 17.3449 34.9007V39.7714C17.3166 39.7714 17.29 39.7717 17.2615 39.7717H9.94896C8.88012 39.7717 8.85129 39.7108 8.7134 39.4201C8.53552 39.0433 6.91161 35.733 4.69809 35.5634C4.20845 35.5255 3.59424 35.5408 3.18614 35.9946C2.75636 36.4722 2.86226 37.0474 2.94732 37.5095L4.20639 44.7008H1.48929C0.668127 44.7007 0 45.3688 0 46.19V53.3138C0 54.1369 0.668127 54.8064 1.48929 54.8064H3.75418V56.4945C3.75418 58.4273 5.32672 60 7.25961 60H54.7756C56.7085 60 58.281 58.4273 58.281 56.4945V54.8064H60.5459C61.3689 54.8064 62.0386 54.1369 62.0386 53.3138V46.19C62.0386 45.3688 61.369 44.7007 60.5459 44.7007ZM54.1689 39.2978C53.4379 37.709 53.2919 36.2195 53.7575 35.1035C54.0427 34.4205 54.5483 33.9303 55.2197 33.6863C55.9422 33.424 56.4301 33.3504 56.7333 33.3504C56.9639 33.3504 57.0879 33.3931 57.127 33.4274C57.1582 33.4549 57.2479 33.6761 57.1174 34.2581V34.258C56.711 36.0701 56.878 37.512 57.012 38.6707C57.111 39.5262 57.1964 40.2648 57.0342 40.9478C56.5185 43.1164 55.2623 44.1613 52.3011 44.5342C52.3088 44.5275 52.3167 44.5209 52.3245 44.5141C54.838 42.3443 54.7145 40.4792 54.1689 39.2978ZM45.5159 39.9758C45.4496 39.3577 45.5306 38.6782 45.7492 38.0136C46.3156 36.3117 47.8926 34.4871 50.139 34.2474C50.7956 34.1773 51.4523 34.2346 52.0785 34.4081C51.4169 35.9977 51.5727 38.0037 52.5182 40.0586C53.4077 41.9846 50.0224 44.0332 48.9487 44.623C47.0508 43.903 45.7479 42.1547 45.5159 39.9758ZM35.0926 41.8744V44.7007H27.183C26.4652 44.6322 25.9018 44.0263 25.9018 43.2909C25.9018 42.5098 26.5373 41.8744 27.3183 41.8744H35.0926ZM31.3145 33.6848C30.2006 33.9844 29.1791 34.397 28.2919 34.9154C28.2745 34.9256 28.2583 34.9349 28.2432 34.9436C28.142 34.8241 28.011 34.656 27.89 34.5009C27.7422 34.3114 27.5582 34.0754 27.3373 33.8046C26.8664 33.2307 26.1927 32.541 25.4976 31.9086L30.503 29.8892C30.7642 29.7836 31.0368 29.6665 31.3144 29.5373V33.6848H31.3145ZM23.422 30.7864C23.145 30.8972 22.8394 30.8925 22.5615 30.7736C22.2837 30.6546 22.0697 30.4365 21.9583 30.1571C21.8468 29.8801 21.8508 29.5744 21.9695 29.2966C22.0887 29.0179 22.3076 28.8032 22.5858 28.6921C22.5939 28.6889 22.6019 28.6854 22.61 28.682L27.201 26.6928L28.2804 28.8263L23.422 30.7864ZM26.4253 1.8176C28.6864 1.85964 31.0984 3.4037 31.5388 6.68157C29.5533 6.30304 25.5031 5.4923 25.0322 5.37028C25.032 5.37016 25.0319 5.37016 25.0316 5.37004C24.7678 5.30194 24.524 5.27225 24.2973 5.27225C23.438 5.27225 22.8266 5.69756 22.3143 6.05391C22 6.27262 21.6956 6.48431 21.3143 6.63916C21.77 3.3905 24.1725 1.85952 26.4253 1.8176ZM21.2374 9.64355V8.56042C22.211 8.33783 22.8549 7.89181 23.3522 7.54587C23.9484 7.13123 24.1398 7.0166 24.5766 7.12965V7.12953C24.9028 7.21387 29.6159 8.17813 31.6096 8.54503V9.64355C31.6096 11.2055 30.1187 13.4947 28.0639 14.4727C28.0351 14.4841 28.007 14.4967 27.9799 14.5108C27.8672 14.562 27.7534 14.6104 27.6377 14.6534C27.1654 14.8264 26.7915 14.9035 26.4253 14.9035C26.0618 14.9035 25.6754 14.824 25.2137 14.6549C25.1032 14.6138 24.9934 14.5671 24.8843 14.5173C24.8552 14.5017 24.8249 14.4879 24.7941 14.4754C22.8849 13.559 21.2374 11.3668 21.2374 9.64355ZM28.522 16.2577V16.5303C28.522 17.8531 27.5815 18.9293 26.4254 18.9293C25.2674 18.9293 24.3253 17.8531 24.3253 16.5303V16.2573C24.4112 16.2934 24.4975 16.3277 24.5844 16.3601C25.2569 16.6064 25.8419 16.7212 26.4254 16.7212C27.0065 16.7212 27.5906 16.6064 28.2671 16.3586C28.3524 16.3269 28.4374 16.2931 28.522 16.2577ZM18.7117 17.8866C19.4384 16.7076 20.2025 16.2267 21.3488 16.2267H22.5077V16.5304C22.5077 18.8554 24.2651 20.747 26.4253 20.747C28.5836 20.747 30.3394 18.8556 30.3394 16.5304V16.2267H31.4983C33.1392 16.2267 34.4742 17.5618 34.4742 19.2028V21.409C34.4592 21.6981 34.4481 21.9595 34.4381 22.1985C34.3775 23.6423 34.3592 24.0781 33.713 25.1995C32.9779 26.4742 31.8521 27.3597 29.9709 28.1421L28.8632 25.9523C29.2863 25.7309 29.5876 25.497 30.0129 25.0508C30.0581 25.0036 30.0978 24.9516 30.1317 24.8957L31.2274 23.0924C31.488 22.6634 31.3515 22.1045 30.9226 21.8438C30.4938 21.583 29.9347 21.7196 29.6741 22.1486L28.6307 23.8659C28.2839 24.2218 28.1259 24.3094 27.6027 24.5379L21.8984 27.0096C21.3871 27.2166 20.9558 27.558 20.6367 27.9939C19.8252 27.5467 18.9501 27.2188 18.0468 26.9739L19.8972 23.9656C20.1601 23.5381 20.0267 22.9785 19.5992 22.7154C19.1717 22.4526 18.6121 22.586 18.3491 23.0134L16.1585 26.5746C15.2805 26.4338 14.3994 26.3447 13.5454 26.2767L18.7117 17.8866ZM12.7454 31.1844C11.929 31.077 11.0045 31.0377 10.0002 31.1302C9.83433 31.1454 9.45362 31.1861 9.40261 31.1913C9.38395 31.0939 8.1187 23.877 8.1187 23.877C8.83662 24.1824 9.91806 25.5961 10.5115 26.8419C10.849 27.5561 11.2075 27.8587 11.6877 27.9734C12.2534 28.0462 12.6652 28.0341 12.8517 28.047C13.0921 28.0642 13.3361 28.0832 13.5814 28.1035L12.7454 31.1844ZM19.1624 36.3461C20.5883 37.7117 21.203 38.9818 21.28 39.4601C21.0056 39.6003 20.2956 39.6935 19.1624 39.7391V36.3461ZM11.5378 41.5893H17.2615C20.7891 41.5893 22.0032 41.381 22.6741 40.661C22.8927 40.4263 23.1442 40.0161 23.1004 39.3959C22.9857 37.7187 20.6718 34.2455 16.0696 32.117C15.7502 31.9694 15.2225 31.7516 14.5287 31.5535L15.4109 28.3017C17.0755 28.5343 18.7216 28.9407 20.0598 29.7609C20.0622 30.1245 20.1321 30.4876 20.2715 30.8335C20.5623 31.5618 21.1214 32.1338 21.8457 32.4442C22.2198 32.6045 22.6138 32.6848 23.008 32.6848C23.1923 32.6848 23.3767 32.6671 23.5589 32.632C24.4092 33.3322 25.3601 34.2602 25.9308 34.9557C26.1374 35.2089 26.307 35.4265 26.4568 35.6186C26.6549 35.8728 26.8458 36.1166 27.0486 36.3191V40.0691C25.3912 40.2068 24.0844 41.5988 24.0844 43.291C24.0844 43.7962 24.201 44.2744 24.4084 44.7008H11.5378V41.5893ZM7.07046 40.1974C7.68261 41.4881 8.74054 41.5818 9.72031 41.5886V44.7007H6.05155L4.77927 37.4296C5.50241 37.7134 6.51975 39.0308 7.07046 40.1974ZM60.2211 52.989H33.1884C32.6865 52.989 32.2796 53.3958 32.2796 53.8978C32.2796 54.3998 32.6865 54.8066 33.1884 54.8066H56.4635V56.4946C56.4635 57.4254 55.7063 58.1826 54.7756 58.1826H7.25961C6.32891 58.1826 5.57172 57.4254 5.57172 56.4946V54.8066H29.1903C29.6921 54.8066 30.099 54.3998 30.099 53.8978C30.099 53.3958 29.6921 52.989 29.1903 52.989H1.81754V46.5184H5.28431C5.28516 46.5184 5.28613 46.5185 5.28697 46.5185C5.28758 46.5185 60.2211 46.5184 60.2211 46.5184V52.989Z" fill="#0077B9"/>
</svg>
