<svg width="58" height="60" viewBox="0 0 58 60" fill="none" xmlns="http://www.w3.org/2000/svg">
<path d="M33.1594 17.72H18.3591C17.8727 17.72 17.4785 18.1143 17.4785 18.6006C17.4785 19.087 17.8727 19.4813 18.3591 19.4813H33.1594C33.6458 19.4813 34.04 19.087 34.04 18.6006C34.04 18.1142 33.6458 17.72 33.1594 17.72Z" fill="#0077B9"/>
<path d="M18.3591 22.6412H26.6776C27.164 22.6412 27.5583 22.2469 27.5583 21.7605C27.5583 21.2742 27.164 20.8799 26.6776 20.8799H18.3591C17.8727 20.8799 17.4785 21.2742 17.4785 21.7605C17.4786 22.2469 17.8728 22.6412 18.3591 22.6412Z" fill="#0077B9"/>
<path d="M13.927 17.3603L10.6856 20.6841L9.2833 19.3205C8.93466 18.9813 8.37708 18.9893 8.03806 19.3378C7.69904 19.6866 7.70677 20.244 8.05552 20.5832L10.0881 22.5599C10.4317 22.8942 10.9979 22.8864 11.3324 22.5434L15.1878 18.5899C15.5274 18.2418 15.5205 17.6842 15.1722 17.3446C14.8237 17.005 14.2665 17.0122 13.927 17.3603Z" fill="#0077B9"/>
<path d="M33.1594 26.6885H18.3591C17.8727 26.6885 17.4785 27.0827 17.4785 27.5691C17.4785 28.0555 17.8727 28.4498 18.3591 28.4498H33.1594C33.6458 28.4498 34.04 28.0555 34.04 27.5691C34.04 27.0828 33.6458 26.6885 33.1594 26.6885Z" fill="#0077B9"/>
<path d="M26.6776 29.8486H18.3591C17.8727 29.8486 17.4785 30.2429 17.4785 30.7293C17.4785 31.2157 17.8727 31.61 18.3591 31.61H26.6776C27.164 31.61 27.5583 31.2156 27.5583 30.7293C27.5583 30.243 27.164 29.8486 26.6776 29.8486Z" fill="#0077B9"/>
<path d="M13.927 26.3288L10.6856 29.6526L9.2833 28.289C8.93443 27.9499 8.37708 27.9579 8.03806 28.3065C7.69904 28.6551 7.70677 29.2127 8.05552 29.5517L10.0881 31.5283C10.4317 31.8627 10.9979 31.8548 11.3324 31.5118L15.1878 27.5585C15.5274 27.2103 15.5205 26.6527 15.1722 26.3131C14.8239 25.9735 14.2665 25.9807 13.927 26.3288Z" fill="#0077B9"/>
<path d="M13.927 35.2982L10.6856 38.622L9.2833 37.2584C8.93466 36.9193 8.37708 36.9273 8.03806 37.2759C7.69904 37.6245 7.70677 38.1821 8.05552 38.5211L10.0881 40.4977C10.4317 40.8321 10.9979 40.8242 11.3324 40.4812L15.1878 36.5279C15.5274 36.1797 15.5205 35.6221 15.1722 35.2825C14.8239 34.943 14.2665 34.9502 13.927 35.2982Z" fill="#0077B9"/>
<path d="M13.927 44.2671L10.6856 47.5909L9.2833 46.2273C8.93466 45.8881 8.37708 45.8961 8.03806 46.2446C7.69904 46.5933 7.70677 47.1509 8.05552 47.49L10.0881 49.4667C10.4317 49.8011 10.9979 49.7932 11.3324 49.4502L15.1878 45.4969C15.5274 45.1487 15.5205 44.5911 15.1722 44.2515C14.8239 43.9117 14.2665 43.9189 13.927 44.2671Z" fill="#0077B9"/>
<path d="M50.2706 30.6989C52.1333 27.8964 51.7142 24.0401 51.693 23.8577C51.6459 23.4518 51.3256 23.1315 50.9197 23.0844C50.7148 23.0607 45.8695 22.5341 43.0948 25.3088C42.9443 25.4593 42.8061 25.6174 42.6745 25.779V19.682C42.6745 19.1956 42.2802 18.8013 41.7938 18.8013C41.3073 18.8013 40.9131 19.1955 40.9131 19.682V28.0832C40.3255 27.1534 39.5421 26.2207 38.4996 25.3733V9.97082C38.4996 9.48449 38.1054 9.09015 37.619 9.09015H31.4784V6.6278H39.5127C40.2849 6.6278 40.913 7.25604 40.913 8.02808V16.1594C40.913 16.6457 41.3072 17.0401 41.7937 17.0401C42.2801 17.0401 42.6743 16.6457 42.6743 16.1594V8.0282C42.6743 6.28491 41.256 4.8667 39.5128 4.8667H31.3063C30.9541 3.9899 30.0967 3.36833 29.0954 3.36833H26.1807V2.07294C26.181 0.929886 25.251 0 24.108 0H18.5664C17.4234 0 16.4934 0.929886 16.4934 2.07294V3.36822H13.5789C12.5775 3.36822 11.7202 3.98966 11.3681 4.86658H3.1615C1.41821 4.86658 0 6.28479 0 8.02808V56.8153C0 58.5586 1.41833 59.9768 3.1615 59.9768H37.6838C39.1705 60.0997 40.578 59.6559 41.7937 58.6645C42.8739 59.5464 44.1058 60 45.4206 60C45.6763 60 45.9353 59.9828 46.1968 59.9483C49.1445 59.559 52.1045 57.0395 54.3177 53.0356C54.553 52.61 54.3988 52.0742 53.973 51.8389C53.5476 51.6037 53.0116 51.7579 52.7764 52.1836C50.8648 55.6415 48.319 57.8916 45.9664 58.2022C44.6466 58.3761 43.4569 57.9237 42.4277 56.857C42.0863 56.5035 41.5016 56.5033 41.1603 56.857C39.8508 58.2142 38.3009 58.5763 36.5528 57.9328C34.5584 57.1986 32.5048 55.1729 30.9184 52.3748C29.1646 49.2814 28.0632 45.3999 27.817 41.4454C27.6545 38.8343 28.3861 36.6443 29.9912 34.9363C32.1362 32.6536 35.8728 31.2537 40.3786 31.0122C40.4609 31.2514 40.5375 31.4945 40.6035 31.7446C40.8943 32.8461 40.9591 33.8277 40.9598 34.4793C39.3264 34.2537 38.2602 33.4431 38.2508 33.4358C37.8693 33.1343 37.3155 33.199 37.0139 33.5806C36.7124 33.9621 36.7771 34.516 37.1588 34.8175C37.2353 34.8779 39.0638 36.2984 41.7931 36.2986C41.7937 36.2986 41.7944 36.2987 41.795 36.2987C41.7965 36.2987 41.7979 36.2985 41.7994 36.2985C44.5261 36.2965 46.3525 34.8778 46.4289 34.8174C46.8662 34.4719 46.8663 33.7911 46.4328 33.4425C47.3265 33.1624 48.223 32.7377 49.0027 32.1014C54.9308 34.1901 55.9656 38.3132 55.7707 41.4452C55.6039 44.1231 55.07 46.6964 54.1837 49.0932C54.0238 49.5259 54.2356 50.022 54.6585 50.206C55.1162 50.4052 55.6628 50.1717 55.8356 49.704C56.7815 47.1459 57.3511 44.4039 57.5285 41.5545C57.8419 36.5193 55.2738 32.7046 50.2706 30.6989ZM12.9571 5.75135C12.9571 5.40846 13.2361 5.12955 13.5789 5.12955H17.3741C17.8605 5.12955 18.2547 4.73533 18.2547 4.24888V2.07294C18.2547 1.90102 18.3946 1.76122 18.5664 1.76122H24.108C24.2799 1.76122 24.4197 1.90102 24.4197 2.07294V4.24888C24.4197 4.73521 24.814 5.12955 25.3004 5.12955H29.0957C29.4385 5.12955 29.7175 5.40846 29.7175 5.75135V9.88668C29.7175 10.2296 29.4384 10.5086 29.0957 10.5086H13.5789C13.236 10.5086 12.9571 10.2296 12.9571 9.88668V5.75135ZM28.7078 33.7303C28.1471 34.3269 27.6771 34.9709 27.2921 35.6575H18.3593C17.8728 35.6575 17.4786 36.0517 17.4786 36.5382C17.4786 37.0245 17.8728 37.4188 18.3593 37.4188H26.528C26.384 37.8702 26.2697 38.336 26.1889 38.8175H18.3593C17.8728 38.8175 17.4786 39.2118 17.4786 39.6981C17.4786 40.1845 17.8728 40.5788 18.3593 40.5788H26.0369C26.0331 40.8991 26.0387 41.2238 26.0593 41.5551C26.124 42.595 26.242 43.6206 26.4095 44.6263H18.3593C17.8728 44.6263 17.4786 45.0207 17.4786 45.507C17.4786 45.9933 17.8728 46.3877 18.3593 46.3877H26.7596C26.8687 46.8596 26.9884 47.3262 27.1202 47.7863H18.3593C17.8728 47.7863 17.4786 48.1807 17.4786 48.667C17.4786 49.1533 17.8728 49.5477 18.3593 49.5477H27.6934C28.1654 50.8468 28.7298 52.0858 29.3864 53.2439C29.5315 53.4997 29.6802 53.7488 29.8316 53.9924H5.9358V35.5606C5.9358 35.0742 5.54158 34.6799 5.05514 34.6799C4.56869 34.6799 4.17447 35.0742 4.17447 35.5606V54.8727C4.17447 55.359 4.56869 55.7533 5.05514 55.7533H31.0645C31.8362 56.7289 32.6618 57.557 33.5195 58.2157H3.1615C2.38935 58.2157 1.76122 57.5875 1.76122 56.8154V8.0282C1.76122 7.25604 2.38935 6.62792 3.1615 6.62792H11.1958V9.09027H5.05514C4.56869 9.09027 4.17447 9.48449 4.17447 9.97094V32.038C4.17447 32.5243 4.56869 32.9187 5.05514 32.9187C5.54158 32.9187 5.9358 32.5243 5.9358 32.038V10.8515H11.4018C11.7731 11.6857 12.6084 12.2698 13.5789 12.2698H29.0955C30.0661 12.2698 30.9014 11.6859 31.2727 10.8515H36.7385V24.2012C36.3523 24.0758 35.9182 24.2312 35.7061 24.5963C35.4618 25.0169 35.6045 25.5559 36.025 25.8002C36.2726 25.9441 36.5091 26.0965 36.7385 26.2542V29.6984C33.3557 30.3827 30.5488 31.7711 28.7078 33.7303ZM38.4999 29.4131V27.7921C38.918 28.2579 39.2844 28.761 39.5987 29.3009C39.2274 29.3306 38.861 29.3682 38.4999 29.4131ZM42.7218 34.4663C42.7216 34.3113 42.7182 34.1426 42.7102 33.9611C42.7411 33.9613 42.7701 33.9619 42.8021 33.9619C43.317 33.9619 43.967 33.9328 44.6779 33.8325C44.2206 34.0662 43.5469 34.3395 42.7218 34.4663ZM42.5815 32.1961C42.5593 30.8937 42.7254 28.1693 44.3404 26.5543C45.9554 24.9391 48.6835 24.7732 49.9819 24.7955C50.0043 26.0978 49.8382 28.8223 48.2232 30.4372C46.6081 32.0523 43.885 32.2178 42.5815 32.1961Z" fill="#0077B9"/>
</svg>
