<svg width="39" height="48" viewBox="0 0 39 48" fill="none" xmlns="http://www.w3.org/2000/svg">
<path d="M24.5095 38.9225L18.2106 32.8841C16.7212 31.456 14.4513 31.3022 12.8139 32.5192C12.8133 32.5195 12.8057 32.5248 12.8054 32.5254L12.7775 32.5462C12.744 32.5715 12.7126 32.5718 12.6915 32.5683C12.6545 32.5612 12.6392 32.5377 12.634 32.5286C11.1789 30.2185 10.1949 27.6793 9.70853 24.9814C9.22272 22.2829 9.25912 19.5585 9.81802 16.8844C9.81978 16.8753 9.82507 16.8512 9.85384 16.8339C9.87732 16.8201 9.90315 16.8172 9.93162 16.8257L9.97507 16.8383C11.9391 17.413 14.0201 16.4743 14.9215 14.6071L19.044 6.07092C19.6249 4.86799 19.376 3.43169 18.4255 2.49383C18.0885 2.15273 17.7049 1.83189 17.2848 1.53953C13.5225 -1.07357 8.3876 -0.285122 5.59456 3.33482C5.42107 3.56144 5.25992 3.79862 5.10464 4.03815L5.10288 4.04079C4.54397 4.86828 4.26658 5.38491 3.8477 6.16544L3.75846 6.33129C3.65777 6.5171 1.28244 10.9146 0.697121 14.0106C-0.210214 18.8129 -0.129784 23.7791 0.930779 28.3715C2.05122 33.2226 4.18145 37.5388 7.26158 41.1998C8.04328 42.1289 9.49131 40.9127 8.70873 39.9822C5.82264 36.5525 3.82568 32.5025 2.77363 27.9459C1.77177 23.6062 1.69604 18.9092 2.55553 14.3617C3.08537 11.5575 5.39671 7.27649 5.42196 7.2304L5.51354 7.05986C5.879 6.37943 6.26324 5.72425 6.68477 5.07728L6.69123 5.06701C6.81804 4.86652 6.95336 4.6722 7.0969 4.48345C9.27468 1.66751 13.2739 1.05665 16.2055 3.09265C16.5319 3.31927 16.8272 3.56643 17.0837 3.8265C17.0873 3.83032 17.0911 3.83414 17.0949 3.83795C17.4712 4.20693 17.5701 4.77405 17.3409 5.24842L13.2187 13.7846C12.7203 14.8161 11.5793 15.3371 10.5073 15.0239L10.4714 15.0131C9.93896 14.8542 9.36098 14.9256 8.88574 15.2091C8.41402 15.4904 8.07909 15.9597 7.96695 16.4975C7.35786 19.4106 7.31794 22.3777 7.84748 25.3169C8.37674 28.2547 9.44845 31.0198 11.0336 33.5364C11.3271 34.0031 11.8065 34.3277 12.3486 34.4278C12.8958 34.5285 13.4659 34.3941 13.9159 34.0562L13.9417 34.0371C14.8358 33.3729 16.0807 33.4618 16.9018 34.2491L23.2006 40.2875C23.969 41.0246 23.9837 42.2677 23.48 43.1516C22.5962 44.6912 20.7645 45.7233 19.0587 46.0127C17.3218 46.3069 15.5676 45.9159 14.1199 44.9102C13.1227 44.2177 12.0425 45.7697 13.0411 46.4633C14.4947 47.4728 16.1887 48 17.9247 48C18.4061 48 18.8914 47.9592 19.3745 47.8773C21.6392 47.4931 23.955 46.1222 25.12 44.0933L25.1417 44.0554C26.0664 42.4444 25.8788 40.2355 24.5095 38.9225Z" fill="#0077B9"/>
<path d="M27.9328 8.59717C22.3227 8.59717 17.759 13.1611 17.759 18.7716C17.759 19.2618 17.7945 19.7555 17.8653 20.2431L16.1786 25.7223C16.001 26.2986 16.4393 26.9135 17.0325 26.9446L22.261 27.2185C23.9407 28.3495 25.8957 28.9457 27.9328 28.9457C33.543 28.9457 38.1073 24.3814 38.1073 18.7716C38.1073 13.1611 33.543 8.59717 27.9328 8.59717ZM27.9328 27.0544C26.1974 27.0544 24.5357 26.5234 23.1276 25.5186C22.9811 25.4141 22.8076 25.3534 22.6283 25.3443L18.3426 25.1194L19.7369 20.591C19.9007 20.0591 19.6503 19.3246 19.6503 18.7716C19.6503 14.2041 23.3656 10.4887 27.9328 10.4887C32.5 10.4887 36.2157 14.2041 36.2157 18.7716C36.2157 23.3385 32.5 27.0544 27.9328 27.0544Z" fill="#0077B9"/>
<path d="M24.4993 18.0923C23.985 18.0923 23.5535 18.5238 23.5535 19.0378C23.5535 19.5521 23.9853 19.9839 24.4993 19.9839C24.9983 19.9839 25.421 19.5767 25.443 19.0792C25.4662 18.5496 25.0303 18.0923 24.4993 18.0923Z" fill="#0077B9"/>
<path d="M10.4973 42.4727C9.98302 42.4727 9.55151 42.9045 9.55151 43.4182C9.55151 43.9321 9.98331 44.3639 10.4973 44.3639C10.9963 44.3639 11.419 43.9574 11.441 43.4595C11.4642 42.9309 11.0274 42.4727 10.4973 42.4727Z" fill="#0077B9"/>
<path d="M28.2187 18.0923C27.7035 18.0923 27.2732 18.5226 27.2732 19.0378C27.2732 19.5527 27.7044 19.9839 28.2187 19.9839C28.7183 19.9833 29.1398 19.5773 29.1615 19.0792C29.1847 18.5496 28.7506 18.0923 28.2187 18.0923Z" fill="#0077B9"/>
<path d="M31.9379 18.0923C31.4239 18.0923 30.9924 18.5238 30.9924 19.0378C30.9927 19.5521 31.4245 19.9839 31.9379 19.9839C32.4375 19.9839 32.8596 19.5767 32.8817 19.0792C32.9054 18.5496 32.4695 18.0923 31.9379 18.0923Z" fill="#0077B9"/>
</svg>
