<svg width="60" height="60" viewBox="0 0 60 60" fill="none" xmlns="http://www.w3.org/2000/svg">
<path d="M2.34375 0H8.90613C12.137 0 14.7655 2.62852 14.7655 5.85938V23.0389C14.7655 28.8546 19.4968 33.5859 25.3125 33.5859L25.3126 8.22656C25.3126 7.58039 24.7869 7.05469 24.1407 7.05469H22.9688C21.6764 7.05469 20.625 6.00328 20.625 4.71094V2.34375C20.625 1.05141 21.6764 0 22.9688 0H37.0312C38.3236 0 39.375 1.05141 39.375 2.34375V4.71094C39.375 6.00328 38.3236 7.05469 37.0312 7.05469H35.8593C35.2131 7.05469 34.6874 7.58039 34.6874 8.22656V16.2188C34.6874 16.866 34.1627 17.3906 33.5155 17.3906C32.8683 17.3906 32.3436 16.866 32.3436 16.2188V8.22656C32.3436 6.28805 33.9207 4.71094 35.8593 4.71094H37.0312V2.34375H22.9688V4.71094H24.1407C26.0793 4.71094 27.6564 6.28805 27.6564 8.22656V34.7578C27.6564 35.405 27.1316 35.9297 26.4845 35.9297H25.3125C18.2045 35.9297 12.4218 30.1468 12.4218 23.0389V5.85938C12.4218 3.92086 10.8446 2.34375 8.90613 2.34375H2.34375V4.71094H3.86719C5.99953 4.71094 7.73438 6.44578 7.73438 8.57812V23.0389C7.73438 32.7315 15.6199 40.6171 25.3125 40.6171H26.4845C27.1316 40.6171 27.6564 41.1417 27.6564 41.7889V51.7734C27.6564 53.712 26.0793 55.2891 24.1407 55.2891H22.9688V57.6562H37.0312V55.2891H35.8593C33.9207 55.2891 32.3436 53.712 32.3436 51.7734V41.7891C32.3436 41.1418 32.8683 40.6172 33.5155 40.6172H34.6874C44.3801 40.6172 52.2656 32.7316 52.2656 23.0389V8.57812C52.2656 6.44578 54.0005 4.71094 56.1328 4.71094H57.6562V2.34375H51.0938C49.1552 2.34375 47.5781 3.92086 47.5781 5.85938V23.0389C47.5781 30.147 41.7954 35.9297 34.6874 35.9297H33.5155C32.8683 35.9297 32.3436 35.405 32.3436 34.7578V26.7656C32.3436 26.1184 32.8683 25.5938 33.5155 25.5938C34.1627 25.5938 34.6874 26.1184 34.6874 26.7656V33.5859C40.5029 33.5859 45.2344 28.8545 45.2344 23.0389V5.85938C45.2344 2.62852 47.8629 0 51.0938 0H57.6562C58.9486 0 60 1.05141 60 2.34375V4.71094C60 6.00328 58.9486 7.05469 57.6562 7.05469H56.1328C55.2928 7.05469 54.6094 7.73812 54.6094 8.57812V23.0389C54.6094 28.3396 52.5314 33.3368 48.7583 37.1099C44.9851 40.883 39.988 42.9609 34.6874 42.9609V51.7736C34.6874 52.4197 35.2131 52.9454 35.8593 52.9454H37.0312C38.3236 52.9454 39.375 53.9968 39.375 55.2892V57.6562C39.375 58.9486 38.3236 60 37.0312 60H22.9688C21.6764 60 20.625 58.9486 20.625 57.6562V55.2891C20.625 53.9967 21.6764 52.9453 22.9688 52.9453H24.1407C24.7869 52.9453 25.3126 52.4196 25.3126 51.7734V42.9609H25.3125C20.012 42.9609 15.0148 40.883 11.2417 37.1099C7.46859 33.3368 5.39062 28.3396 5.39062 23.0389V8.57812C5.39062 7.73812 4.70719 7.05469 3.86719 7.05469H2.34375C1.05141 7.05469 0 6.00328 0 4.71094V2.34375C0 1.05141 1.05141 0 2.34375 0V0Z" fill="#0077B9"/>
<path d="M33.5155 22.6638C32.8683 22.6638 32.3436 22.1392 32.3436 21.4919C32.3436 20.8447 32.8683 20.3201 33.5155 20.3201H33.5164C34.1637 20.3201 34.6878 20.8447 34.6878 21.4919C34.6878 22.1392 34.1627 22.6638 33.5155 22.6638Z" fill="#0077B9"/>
</svg>
